<svg id="kvg-08a16" class="kanjivg" viewBox="0 0 106 126" width="106" height="126" xmlns="http://www.w3.org/2000/svg" xmlns:xlink="http://www.w3.org/1999/xlink" xml:space="preserve" version="1.1" baseProfile="full"><defs><style type="text/css">path.black{fill:none;stroke:black;stroke-width:5;stroke-linecap:round;stroke-linejoin:round;}path.grey{fill:none;stroke:#ddd;stroke-width:5;stroke-linecap:round;stroke-linejoin:round;}path.stroke{fill:none;stroke:black;stroke-width:5;stroke-linecap:round;stroke-linejoin:round;}text{font-size:16px;font-family:Segoe UI Symbol,Cambria Math,DejaVu Sans,Symbola,Quivira,STIX,Code2000;-webkit-touch-callout:none;cursor:pointer;-webkit-user-select:none;-khtml-user-select:none;-moz-user-select:none;-ms-user-select:none;user-select: none;}text:hover{color:#777;}#reset{font-weight:bold;}</style><marker id="markerStart" markerWidth="8" markerHeight="8" style="overflow:visible;"><circle cx="0" cy="0" r="1.5" style="stroke:none;fill:red;fill-opacity:0.5;"/></marker><marker id="markerEnd" style="overflow:visible;"><circle cx="0" cy="0" r="0.8" style="stroke:none;fill:blue;fill-opacity:0.5;"><animate attributeName="opacity" from="1" to="0" dur="3s" repeatCount="indefinite" /></circle></marker></defs><path d="M22.88,15.5c3.31,1.72,8.54,7.07,9.37,9.75" class="grey" /><path d="M12.87,36.08c0.63,0.23,3.04,0.27,3.67,0.23c7.8-0.42,16.47-2.17,22.14-2.37c1.05-0.04,2.64,0.11,3.16,0.23" class="grey" /><path d="M16.98,48.38c0.41,0.11,2.95,0.12,3.36,0.11c4.31-0.13,10.14-1.43,14.39-1.42c0.69,0,3.57,0.05,3.91,0.11" class="grey" /><path d="M17.23,61.47c0.39,0.1,2.81,0.11,3.21,0.1c4.11-0.12,10.81-1.84,14.86-1.83c0.66,0,3.41,0.05,3.73,0.1" class="grey" /><path d="M17.64,72.9c0.35,0.36,0.75,0.65,0.86,1.13c0.99,4.21,2.25,13.04,3.25,19.21" class="grey" /><path d="M19.31,74.87c6.44-0.89,12.98-1.6,18.92-2.5c1.49-0.22,2.39,1.04,2.18,2.06c-0.89,4.25-1.66,7.22-3.24,14.28" class="grey" /><path d="M22.47,91.05c4.8-0.54,10.1-1.47,16.69-2.31" class="grey" /><path d="M59.01,13c0.04,0.7,0.14,2.02-0.07,2.81C56.39,25.7,52.63,34.78,46,42.75" class="grey" /><path d="M57.25,30.32c1.34-0.19,1.84-0.09,3.18-0.19c7.39-0.57,16.87-3.33,27.41-5.25c1.89-0.17,3.47-0.19,4.66,0" class="grey" /><path d="M52.25,45.45c0.65,0.57,2.49,0.94,4.62,0.76c5.63-0.46,16.63-3.21,21.7-4.46c2.17-0.54,3.21,1.06,1.82,2.86c-8.14,10.58-15.64,21.64-21.21,33.05c-3.9,7.98-5.29,12.62,4.86,13.75c9.71,1.08,20.43,0.82,26.45-0.01c4.76-0.66,4.27-4.58,4.11-7.25" class="grey" /><path d="M22.88,15.5c3.31,1.72,8.54,7.07,9.37,9.75" class="stroke" stroke-dasharray="150"><animate attributeName="stroke-dashoffset" from="150" to="0" dur="1.8s" begin="0.0s" fill="freeze" /></path><path d="M12.87,36.08c0.63,0.23,3.04,0.27,3.67,0.23c7.8-0.42,16.47-2.17,22.14-2.37c1.05-0.04,2.64,0.11,3.16,0.23" class="stroke" stroke-dasharray="150"><set attributeName="opacity" to="0" dur="0.9s" /><animate attributeName="stroke-dashoffset" from="150" to="0" dur="1.8s" begin="0.9s" fill="freeze" /></path><path d="M16.98,48.38c0.41,0.11,2.95,0.12,3.36,0.11c4.31-0.13,10.14-1.43,14.39-1.42c0.69,0,3.57,0.05,3.91,0.11" class="stroke" stroke-dasharray="150"><set attributeName="opacity" to="0" dur="1.9s" /><animate attributeName="stroke-dashoffset" from="150" to="0" dur="1.8s" begin="1.9s" fill="freeze" /></path><path d="M17.23,61.47c0.39,0.1,2.81,0.11,3.21,0.1c4.11-0.12,10.81-1.84,14.86-1.83c0.66,0,3.41,0.05,3.73,0.1" class="stroke" stroke-dasharray="150"><set attributeName="opacity" to="0" dur="2.9s" /><animate attributeName="stroke-dashoffset" from="150" to="0" dur="1.8s" begin="2.9s" fill="freeze" /></path><path d="M17.64,72.9c0.35,0.36,0.75,0.65,0.86,1.13c0.99,4.21,2.25,13.04,3.25,19.21" class="stroke" stroke-dasharray="150"><set attributeName="opacity" to="0" dur="3.9s" /><animate attributeName="stroke-dashoffset" from="150" to="0" dur="1.8s" begin="3.9s" fill="freeze" /></path><path d="M19.31,74.87c6.44-0.89,12.98-1.6,18.92-2.5c1.49-0.22,2.39,1.04,2.18,2.06c-0.89,4.25-1.66,7.22-3.24,14.28" class="stroke" stroke-dasharray="150"><set attributeName="opacity" to="0" dur="4.9s" /><animate attributeName="stroke-dashoffset" from="150" to="0" dur="1.8s" begin="4.9s" fill="freeze" /></path><path d="M22.47,91.05c4.8-0.54,10.1-1.47,16.69-2.31" class="stroke" stroke-dasharray="150"><set attributeName="opacity" to="0" dur="5.9s" /><animate attributeName="stroke-dashoffset" from="150" to="0" dur="1.8s" begin="5.9s" fill="freeze" /></path><path d="M59.01,13c0.04,0.7,0.14,2.02-0.07,2.81C56.39,25.7,52.63,34.78,46,42.75" class="stroke" stroke-dasharray="150"><set attributeName="opacity" to="0" dur="6.800000000000001s" /><animate attributeName="stroke-dashoffset" from="150" to="0" dur="1.8s" begin="6.800000000000001s" fill="freeze" /></path><path d="M57.25,30.32c1.34-0.19,1.84-0.09,3.18-0.19c7.39-0.57,16.87-3.33,27.41-5.25c1.89-0.17,3.47-0.19,4.66,0" class="stroke" stroke-dasharray="150"><set attributeName="opacity" to="0" dur="7.800000000000001s" /><animate attributeName="stroke-dashoffset" from="150" to="0" dur="1.8s" begin="7.800000000000001s" fill="freeze" /></path><path d="M52.25,45.45c0.65,0.57,2.49,0.94,4.62,0.76c5.63-0.46,16.63-3.21,21.7-4.46c2.17-0.54,3.21,1.06,1.82,2.86c-8.14,10.58-15.64,21.64-21.21,33.05c-3.9,7.98-5.29,12.62,4.86,13.75c9.71,1.08,20.43,0.82,26.45-0.01c4.76-0.66,4.27-4.58,4.11-7.25" class="stroke" stroke-dasharray="150"><set attributeName="opacity" to="0" dur="8.8s" /><animate attributeName="stroke-dashoffset" from="150" to="0" dur="1.8s" begin="8.8s" fill="freeze" /></path></svg>